<svg width="43" height="38" viewBox="0 0 43 38" fill="none" xmlns="http://www.w3.org/2000/svg">
<path d="M21.4295 3.00043C20.432 4.60835 20.2777 5.99053 20.0865 7.48327C19.6027 11.2605 20.2777 12.3623 20.5069 13.3633C20.6601 13.8228 20.8144 14.2859 20.9296 17.9002C20.9688 21.2866 20.9688 27.8242 20.9688 34.56" stroke="#FFF700" stroke-width="6" stroke-linecap="round" stroke-linejoin="round"/>
<path d="M3.00055 7.83801C3.68933 8.22041 4.60848 8.83318 5.53108 9.44824C6.54154 10.1219 7.75522 10.9064 9.36776 11.5215C10.6246 12.0009 11.5193 12.3669 12.67 12.9797C14.6762 14.048 15.6659 14.2098 17.3498 15.357C20.8768 17.7598 22.116 17.6653 24.377 18.7756C25.6326 19.3922 26.7232 19.6602 27.6458 20.046C28.5967 20.4437 29.4876 21.1207 30.4102 21.6574C31.3338 22.1948 32.2519 22.6549 33.1745 23.27C34.0971 23.885 35.0163 24.4978 35.9389 24.8837C36.8615 25.1912 37.5526 25.4215 38.0121 25.5747C38.2436 25.6519 38.4717 25.7279 39.1674 26.0366" stroke="#FFF700" stroke-width="6" stroke-linecap="round" stroke-linejoin="round"/>
<path d="M3.922 30.8742C7.06644 30.4918 8.29427 29.8791 9.44608 29.0348C10.6378 28.1613 12.2795 26.4329 13.7849 24.9654C14.6251 24.1465 15.4355 23.4289 16.2049 22.5466C17.1892 21.418 17.9695 20.6646 18.8541 20.0115C19.7299 19.3649 20.5035 18.5913 21.4261 18.0143C22.2617 17.4916 23.7239 17.0571 24.9195 16.7461C26.1554 16.4247 27.184 15.827 28.0685 15.1739C28.9529 14.521 29.4876 13.5234 30.4862 12.7943C31.8745 11.7807 32.7126 11.2197 33.9796 9.99307C34.8708 9.13029 35.629 7.92096 36.4388 6.95805C36.6311 6.76454 36.8592 6.6125 37.0527 6.42015C37.2462 6.2278 37.3982 5.99974 37.7852 5.76477" stroke="#FFF700" stroke-width="6" stroke-linecap="round" stroke-linejoin="round"/>
</svg>
