<svg width="75" height="60" viewBox="0 0 75 60" fill="none" xmlns="http://www.w3.org/2000/svg">
<path d="M22.6662 4C25.4117 4 30.9679 4.23843 32.7145 4.72071C34.2797 5.15288 35.6642 6.52158 37.4109 7.54935C38.7927 8.36242 40.3606 8.81195 41.7478 9.53627C43.2212 10.3056 44.096 11.9404 45.0605 13.4469C46.1373 15.1286 47.2244 16.8752 48.6117 18.7447C49.7401 20.2655 50.7214 21.6944 51.5631 23.2008C52.7462 25.3182 57.0723 30.0972 59.5704 32.8952C60.8509 34.3294 61.5591 35.7834 62.4009 37.2303C63.2753 38.7333 64.0879 40.1185 64.9893 41.5653C65.9655 43.1325 67.0936 44.4536 68.8403 47.3997C69.9446 49.2622 70.3521 51.4295 70.1733 53.8373C69.9164 57.2961 61.0895 54.6989 59.1604 54.157C57.196 53.6052 55.5478 53.2538 54.101 52.1719C52.8413 51.2299 51.3356 49.8869 49.4064 48.4401C47.6107 47.0933 46.1551 46.1515 44.7083 44.8275C43.2596 43.5018 41.82 42.5389 40.4328 41.2149C39.1645 40.0044 37.1309 38.6879 30.4585 36.4608C27.6811 35.5337 25.9247 35.5522 22.6788 35.3698C20.724 35.2599 19.0608 34.8297 17.5544 34.3474C14.6777 33.4265 11.1132 31.34 9.66632 30.6156C7.98273 29.7728 7.0165 28.2115 5.45226 26.4052C4.10855 24.8536 4.00361 22.9154 4 14.1495C3.99908 11.9259 4.84173 11.2288 5.38181 10.5081C6.48425 9.03691 8.20865 8.58074 9.95533 7.97564C11.6411 7.39165 13.6275 7.37414 15.3128 6.95147C17.8925 6.30448 21.5535 6.5288 24.4652 7.1881C26.5322 7.65611 28.6775 8.21226 31.5657 8.99438C33.9551 9.64142 35.3066 9.89933 35.9081 10.2588C37.2035 11.033 37.8318 13.2626 39.3382 15.851C40.813 18.3851 42.2897 19.8881 43.2542 21.3349C44.3106 22.9196 45.7794 24.5844 48.1854 26.3907C50.2389 27.9324 51.5595 29.2808 52.5873 30.7276C53.6011 32.1547 54.5724 33.9771 55.7772 35.4836C57.7612 37.9643 58.9075 42.2861 59.9317 43.7329C61.0403 45.2991 62.7585 45.783 64.1457 46.6844C64.5045 46.9175 64.6876 47.3437 64.7508 47.7067C64.8141 48.0698 64.6949 48.4274 64.395 48.6117C62.6988 49.6539 60.2442 47.4737 58.7973 46.5128C56.2452 44.8177 54.1028 41.8164 52.7156 40.7923C51.1344 39.6249 50.0061 37.6042 49.0416 36.1573C48.0388 34.6532 46.278 32.5538 43.7491 29.6601C41.1002 26.6289 38.8071 23.8764 37.5427 22.1297C36.3343 20.4603 34.8333 18.8188 33.5689 17.3719C32.4152 16.0517 30.9823 15.0834 27.628 14.5379C16.5508 12.7364 14.7257 16.0371 12.9791 17.0017C11.5176 17.8087 10.9903 19.5268 10.4448 21.9292C9.83593 24.6108 10.6218 26.7556 11.1619 27.4763C12.3653 29.0821 15.0653 29.7649 17.4171 30.8486C21.7273 32.8349 28.8726 32.5393 32.776 32.2991C34.604 32.1866 36.8636 34.4612 39.6326 35.8448C44.0563 38.0552 46.8632 39.1576 48.3714 39.7049C50.1438 40.348 45.9239 34.7286 42.4269 30.9263C39.7402 28.005 35.9315 24.6061 32.971 21.9509C31.3348 20.4834 29.5373 19.4185 27.731 18.873C25.4099 18.172 17.9048 18.089 14.061 16.6512C12.0145 15.8857 12.1933 13.5155 11.5918 13.3331C11.0651 13.1733 11.1059 14.5921 11.2848 15.6722C11.7559 18.5184 14.35 20.1265 15.5566 21.6366C16.7892 23.1792 18.6851 23.6235 20.43 24.4688C23.0983 25.7616 28.4029 24.9529 31.6922 25.4912C33.7635 25.8302 33.9807 28.5583 34.9453 30.0647C36.4845 32.4686 38.7927 35.4222 40.3624 36.4499C42.0077 37.5273 44.8112 38.1966 48.003 38.4387C49.0307 38.7963 49.7569 39.2804 50.3584 39.8205C50.6022 40.1221 50.7214 40.4798 51.2055 41.2095" stroke="#484BF6" stroke-width="8" stroke-linecap="round" stroke-linejoin="round"/>
<path d="M9.66084 19.1729C9.42241 19.1729 9.53801 20.7226 10.0781 23.19C10.5372 25.2873 12.9049 25.5527 15.1285 25.9753C18.985 26.7084 20.4913 26.6364 22.2362 27.536C22.8973 28.0742 23.851 29.028 24.9384 29.6385C26.0258 30.249 27.2179 30.4874 28.4462 30.7331" stroke="#0F12EB" stroke-width="8" stroke-linecap="round" stroke-linejoin="round"/>
<path d="M39.2839 34.3457C41.1914 36.4916 43.843 38.67 47.9812 40.9513C53.6692 43.4711 57.8201 45.0606 59.3825 45.4219C60.1104 45.5447 60.7065 45.5447 61.3206 45.5447" stroke="#0F12EB" stroke-width="8" stroke-linecap="round" stroke-linejoin="round"/>
<path d="M43.619 23.8693C42.9001 21.7089 41.2203 19.303 39.9504 17.6737C38.5791 15.9142 37.1236 14.7222 35.6768 13.5174C34.4716 12.5139 32.7885 12.4319 30.686 12.0092C29.6672 11.9478 27.9982 11.9478 26.9596 12.0074C25.921 12.067 25.5634 12.1862 24.8336 12.309" stroke="#0F12EB" stroke-width="8" stroke-linecap="round" stroke-linejoin="round"/>
</svg>
